  0
SECTION
  2
HEADER
  9
$ACADVER
  1
AC1009
  9
$INSBASE
 10
0.0
 20
0.0
 30
0.0
  9
$EXTMIN
 10
0.0
 20
0.0
 30
0.0
  9
$EXTMAX
 10
0.0
 20
0.0
 30
0.0
  0
ENDSEC
  0
SECTION
  2
TABLES
  0
TABLE
  2
VPORT
 70
0
  0
ENDTAB
  0
TABLE
  2
LTYPE
 70
1
  0
LTYPE
  2
CONTINUOUS
 70
0
  3
Solid line
 72
65
 73
0
 40
0.0
  0
ENDTAB
  0
TABLE
  2
LAYER
 70
1
  0
LAYER
  2
0
 70
64
 62
7
  6
continuous
  0
ENDTAB
  0
TABLE
  2
STYLE
 70
1
  0
STYLE
  2
STANDARD
 70
0
 40
0
 41
1.0
 50
0.0
 71
0
 42
1
 3
ARIAL.TTF
 4

  0
ENDTAB
  0
TABLE
  2
VIEW
 70
0
  0
ENDTAB
  0
ENDSEC
  0
SECTION
  2
BLOCKS
  0
BLOCK
  8
Board_Geoms
  2
BOARD_OUTLINE
 70
0
 10
0.0
 20
0.0
 30
0.0
  3
BOARD_OUTLINE
  0
ARC
  8
Board_Geoms
 62
0
 10
140.49375000000006
 20
-104.77499999999996
 30
0.0
 40
2.3812500000000454
 50
-180.0
 51
-90.00000000000138
  0
LINE
  8
Board_Geoms
 62
0
 10
138.1125
 20
-28.575
 30
0.0
 11
138.1125
 21
-104.775
 31
0.0
  0
LINE
  8
Board_Geoms
 62
0
 10
140.49375
 20
-107.15625
 30
0.0
 11
216.09862
 21
-107.15625
 31
0.0
  0
ARC
  8
Board_Geoms
 62
0
 10
140.49375000000003
 20
-28.575000000000024
 30
0.0
 40
2.3812500000000223
 50
90.00000000000068
 51
180.0
  0
ARC
  8
Board_Geoms
 62
0
 10
216.098665
 20
-106.56098500000002
 30
0.0
 40
0.5952650017009068
 50
-90.00433136514523
 51
-0.004331365116163799
  0
LINE
  8
Board_Geoms
 62
0
 10
171.0
 20
-26.19375
 30
0.0
 11
140.49375
 21
-26.19375
 31
0.0
  0
LINE
  8
Board_Geoms
 62
0
 10
216.69393
 20
-106.56103
 30
0.0
 11
216.69393
 21
-104.17977
 31
0.0
  0
LINE
  8
Board_Geoms
 62
0
 10
171.0
 20
-20.0
 30
0.0
 11
171.0
 21
-26.19375
 31
0.0
  0
ARC
  8
Board_Geoms
 62
0
 10
217.28923999999992
 20
-104.17976999999995
 30
0.0
 40
0.595309999999933
 50
89.9999999999918
 51
-180.0
  0
ARC
  8
Board_Geoms
 62
0
 10
172.0
 20
-19.999999999999993
 30
0.0
 40
0.999999999999997
 50
90.0
 51
-180.0
  0
LINE
  8
Board_Geoms
 62
0
 10
217.28924
 20
-103.58446
 30
0.0
 11
229.1955
 21
-103.58437
 31
0.0
  0
LINE
  8
Board_Geoms
 62
0
 10
180.5
 20
-19.0
 30
0.0
 11
172.0
 21
-19.0
 31
0.0
  0
ARC
  8
Board_Geoms
 62
0
 10
229.19546
 20
-104.17973000000003
 30
0.0
 40
0.5953600013437373
 50
-0.0038494879477776072
 51
89.99615051199643
  0
ARC
  8
Board_Geoms
 62
0
 10
180.5
 20
-19.999999999999993
 30
0.0
 40
0.999999999999997
 50
-0.0
 51
90.0
  0
LINE
  8
Board_Geoms
 62
0
 10
229.79082
 20
-104.17977
 30
0.0
 11
229.79082
 21
-106.56103
 31
0.0
  0
LINE
  8
Board_Geoms
 62
0
 10
181.5
 20
-26.19375
 30
0.0
 11
181.5
 21
-20.0
 31
0.0
  0
ARC
  8
Board_Geoms
 62
0
 10
230.38612999999998
 20
-106.56103000000002
 30
0.0
 40
0.5953099999999829
 50
180.0
 51
-89.99999999999726
  0
LINE
  8
Board_Geoms
 62
0
 10
385.7625
 20
-26.19375
 30
0.0
 11
181.5
 21
-26.19375
 31
0.0
  0
LINE
  8
Board_Geoms
 62
0
 10
230.38613
 20
-107.15634
 30
0.0
 11
385.7625
 21
-107.15625
 31
0.0
  0
ARC
  8
Board_Geoms
 62
0
 10
385.7625
 20
-28.574999999999996
 30
0.0
 40
2.3812500000000143
 50
-0.0
 51
90.0
  0
ARC
  8
Board_Geoms
 62
0
 10
385.7625
 20
-104.775
 30
0.0
 40
2.381250000000015
 50
-90.0
 51
-0.0
  0
LINE
  8
Board_Geoms
 62
0
 10
388.14375
 20
-104.775
 30
0.0
 11
388.14375
 21
-28.575000000000003
 31
0.0
  0
CIRCLE
  8
Board_Geoms
 62
0
 10
352.1075
 20
-97.63125
 30
0.0
 40
0.875
  0
CIRCLE
  8
Board_Geoms
 62
0
 10
353.3775
 20
-95.09125
 30
0.0
 40
1.5
  0
CIRCLE
  8
Board_Geoms
 62
0
 10
338.1375
 20
-97.63125
 30
0.0
 40
1.994
  0
CIRCLE
  8
Board_Geoms
 62
0
 10
343.2175
 20
-97.63125
 30
0.0
 40
0.875
  0
CIRCLE
  8
Board_Geoms
 62
0
 10
340.6775
 20
-92.55125
 30
0.0
 40
1.5
  0
CIRCLE
  8
Board_Geoms
 62
0
 10
314.31865
 20
-99.85375
 30
0.0
 40
1.524
  0
CIRCLE
  8
Board_Geoms
 62
0
 10
227.291
 20
-94.652
 30
0.0
 40
0.3
  0
CIRCLE
  8
Board_Geoms
 62
0
 10
227.291
 20
-95.922
 30
0.0
 40
0.3
  0
CIRCLE
  8
Board_Geoms
 62
0
 10
227.291
 20
-98.462
 30
0.0
 40
0.3
  0
CIRCLE
  8
Board_Geoms
 62
0
 10
227.291
 20
-97.192
 30
0.0
 40
0.3
  0
CIRCLE
  8
Board_Geoms
 62
0
 10
245.0
 20
-98.67
 30
0.0
 40
0.5
  0
CIRCLE
  8
Board_Geoms
 62
0
 10
245.0
 20
-96.13
 30
0.0
 40
0.5
  0
CIRCLE
  8
Board_Geoms
 62
0
 10
227.291
 20
-93.382
 30
0.0
 40
0.3
  0
CIRCLE
  8
Board_Geoms
 62
0
 10
264.31875
 20
-92.86875
 30
0.0
 40
1.994
  0
CIRCLE
  8
Board_Geoms
 62
0
 10
253.7
 20
-101.357
 30
0.0
 40
0.35
  0
CIRCLE
  8
Board_Geoms
 62
0
 10
250.8
 20
-101.357
 30
0.0
 40
0.35
  0
CIRCLE
  8
Board_Geoms
 62
0
 10
245.0
 20
-101.21
 30
0.0
 40
0.5
  0
CIRCLE
  8
Board_Geoms
 62
0
 10
227.291
 20
-101.002
 30
0.0
 40
0.3
  0
CIRCLE
  8
Board_Geoms
 62
0
 10
227.291
 20
-99.732
 30
0.0
 40
0.3
  0
CIRCLE
  8
Board_Geoms
 62
0
 10
227.037
 20
-90.842
 30
0.0
 40
0.3
  0
CIRCLE
  8
Board_Geoms
 62
0
 10
329.565
 20
-71.27875
 30
0.0
 40
1.5
  0
CIRCLE
  8
Board_Geoms
 62
0
 10
338.455
 20
-73.81875
 30
0.0
 40
0.875
  0
CIRCLE
  8
Board_Geoms
 62
0
 10
352.1075
 20
-78.58125
 30
0.0
 40
0.875
  0
CIRCLE
  8
Board_Geoms
 62
0
 10
316.865
 20
-68.73875
 30
0.0
 40
1.5
  0
CIRCLE
  8
Board_Geoms
 62
0
 10
309.245
 20
-73.81875
 30
0.0
 40
0.875
  0
CIRCLE
  8
Board_Geoms
 62
0
 10
314.31865
 20
-84.61375
 30
0.0
 40
1.994
  0
CIRCLE
  8
Board_Geoms
 62
0
 10
266.85875
 20
-87.78875
 30
0.0
 40
1.5
  0
CIRCLE
  8
Board_Geoms
 62
0
 10
278.765
 20
-68.73875
 30
0.0
 40
1.5
  0
CIRCLE
  8
Board_Geoms
 62
0
 10
276.225
 20
-73.81875
 30
0.0
 40
1.994
  0
CIRCLE
  8
Board_Geoms
 62
0
 10
271.145
 20
-73.81875
 30
0.0
 40
0.875
  0
CIRCLE
  8
Board_Geoms
 62
0
 10
291.465
 20
-71.27875
 30
0.0
 40
1.5
  0
CIRCLE
  8
Board_Geoms
 62
0
 10
300.355
 20
-73.81875
 30
0.0
 40
0.875
  0
CIRCLE
  8
Board_Geoms
 62
0
 10
233.045
 20
-73.81875
 30
0.0
 40
0.875
  0
CIRCLE
  8
Board_Geoms
 62
0
 10
234.315
 20
-71.27875
 30
0.0
 40
1.5
  0
CIRCLE
  8
Board_Geoms
 62
0
 10
238.125
 20
-73.81875
 30
0.0
 40
1.994
  0
CIRCLE
  8
Board_Geoms
 62
0
 10
240.665
 20
-68.73875
 30
0.0
 40
1.5
  0
CIRCLE
  8
Board_Geoms
 62
0
 10
243.205
 20
-73.81875
 30
0.0
 40
0.875
  0
CIRCLE
  8
Board_Geoms
 62
0
 10
252.095
 20
-73.81875
 30
0.0
 40
0.875
  0
CIRCLE
  8
Board_Geoms
 62
0
 10
233.68
 20
-54.76875
 30
0.0
 40
0.875
  0
CIRCLE
  8
Board_Geoms
 62
0
 10
261.62
 20
-54.76875
 30
0.0
 40
0.875
  0
CIRCLE
  8
Board_Geoms
 62
0
 10
290.83
 20
-54.76875
 30
0.0
 40
0.875
  0
CIRCLE
  8
Board_Geoms
 62
0
 10
328.93
 20
-54.76875
 30
0.0
 40
0.875
  0
CIRCLE
  8
Board_Geoms
 62
0
 10
231.14
 20
-49.68875
 30
0.0
 40
1.5
  0
CIRCLE
  8
Board_Geoms
 62
0
 10
228.6
 20
-54.76875
 30
0.0
 40
1.994
  0
CIRCLE
  8
Board_Geoms
 62
0
 10
243.84
 20
-52.22875
 30
0.0
 40
1.5
  0
CIRCLE
  8
Board_Geoms
 62
0
 10
242.57
 20
-54.76875
 30
0.0
 40
0.875
  0
CIRCLE
  8
Board_Geoms
 62
0
 10
262.89
 20
-52.22875
 30
0.0
 40
1.5
  0
CIRCLE
  8
Board_Geoms
 62
0
 10
250.19
 20
-49.68875
 30
0.0
 40
1.5
  0
CIRCLE
  8
Board_Geoms
 62
0
 10
247.65
 20
-54.76875
 30
0.0
 40
1.994
  0
CIRCLE
  8
Board_Geoms
 62
0
 10
379.76
 20
-48.5
 30
0.0
 40
0.5
  0
CIRCLE
  8
Board_Geoms
 62
0
 10
377.22
 20
-48.5
 30
0.0
 40
0.5
  0
CIRCLE
  8
Board_Geoms
 62
0
 10
352.58375
 20
-49.68875
 30
0.0
 40
1.5
  0
CIRCLE
  8
Board_Geoms
 62
0
 10
288.29
 20
-49.68875
 30
0.0
 40
1.5
  0
CIRCLE
  8
Board_Geoms
 62
0
 10
307.34
 20
-49.68875
 30
0.0
 40
1.5
  0
CIRCLE
  8
Board_Geoms
 62
0
 10
344.96375
 20
-54.76875
 30
0.0
 40
0.875
  0
CIRCLE
  8
Board_Geoms
 62
0
 10
346.23375
 20
-52.22875
 30
0.0
 40
1.5
  0
CIRCLE
  8
Board_Geoms
 62
0
 10
323.85
 20
-54.76875
 30
0.0
 40
1.994
  0
CIRCLE
  8
Board_Geoms
 62
0
 10
326.39
 20
-49.68875
 30
0.0
 40
1.5
  0
CIRCLE
  8
Board_Geoms
 62
0
 10
318.77
 20
-54.76875
 30
0.0
 40
0.875
  0
CIRCLE
  8
Board_Geoms
 62
0
 10
320.04
 20
-52.22875
 30
0.0
 40
1.5
  0
CIRCLE
  8
Board_Geoms
 62
0
 10
285.75
 20
-54.76875
 30
0.0
 40
1.994
  0
CIRCLE
  8
Board_Geoms
 62
0
 10
299.72
 20
-54.76875
 30
0.0
 40
0.875
  0
CIRCLE
  8
Board_Geoms
 62
0
 10
300.99
 20
-52.22875
 30
0.0
 40
1.5
  0
CIRCLE
  8
Board_Geoms
 62
0
 10
309.88
 20
-54.76875
 30
0.0
 40
0.875
  0
CIRCLE
  8
Board_Geoms
 62
0
 10
304.8
 20
-54.76875
 30
0.0
 40
1.994
  0
CIRCLE
  8
Board_Geoms
 62
0
 10
361.95
 20
-57.15
 30
0.0
 40
1.1
  0
CIRCLE
  8
Board_Geoms
 62
0
 10
355.12375
 20
-54.76875
 30
0.0
 40
0.875
  0
CIRCLE
  8
Board_Geoms
 62
0
 10
350.04375
 20
-54.76875
 30
0.0
 40
1.994
  0
CIRCLE
  8
Board_Geoms
 62
0
 10
252.73
 20
-54.76875
 30
0.0
 40
0.875
  0
CIRCLE
  8
Board_Geoms
 62
0
 10
269.24
 20
-49.68875
 30
0.0
 40
1.5
  0
CIRCLE
  8
Board_Geoms
 62
0
 10
266.7
 20
-54.76875
 30
0.0
 40
1.994
  0
CIRCLE
  8
Board_Geoms
 62
0
 10
280.67
 20
-54.76875
 30
0.0
 40
0.875
  0
CIRCLE
  8
Board_Geoms
 62
0
 10
281.94
 20
-52.22875
 30
0.0
 40
1.5
  0
CIRCLE
  8
Board_Geoms
 62
0
 10
271.78
 20
-54.76875
 30
0.0
 40
0.875
  0
CIRCLE
  8
Board_Geoms
 62
0
 10
253.365
 20
-71.27875
 30
0.0
 40
1.5
  0
CIRCLE
  8
Board_Geoms
 62
0
 10
378.7775
 20
-92.55125
 30
0.0
 40
1.5
  0
CIRCLE
  8
Board_Geoms
 62
0
 10
359.7275
 20
-92.55125
 30
0.0
 40
1.5
  0
CIRCLE
  8
Board_Geoms
 62
0
 10
359.7275
 20
-73.50125
 30
0.0
 40
1.5
  0
CIRCLE
  8
Board_Geoms
 62
0
 10
357.1875
 20
-78.58125
 30
0.0
 40
1.994
  0
CIRCLE
  8
Board_Geoms
 62
0
 10
362.2675
 20
-78.58125
 30
0.0
 40
0.875
  0
CIRCLE
  8
Board_Geoms
 62
0
 10
353.3775
 20
-76.04125
 30
0.0
 40
1.5
  0
CIRCLE
  8
Board_Geoms
 62
0
 10
334.3275
 20
-95.09125
 30
0.0
 40
1.5
  0
CIRCLE
  8
Board_Geoms
 62
0
 10
290.195
 20
-73.81875
 30
0.0
 40
0.875
  0
CIRCLE
  8
Board_Geoms
 62
0
 10
295.275
 20
-73.81875
 30
0.0
 40
1.994
  0
CIRCLE
  8
Board_Geoms
 62
0
 10
310.515
 20
-71.27875
 30
0.0
 40
1.5
  0
CIRCLE
  8
Board_Geoms
 62
0
 10
314.325
 20
-73.81875
 30
0.0
 40
1.994
  0
CIRCLE
  8
Board_Geoms
 62
0
 10
335.915
 20
-68.73875
 30
0.0
 40
1.5
  0
CIRCLE
  8
Board_Geoms
 62
0
 10
333.375
 20
-73.81875
 30
0.0
 40
1.994
  0
CIRCLE
  8
Board_Geoms
 62
0
 10
319.405
 20
-73.81875
 30
0.0
 40
0.875
  0
CIRCLE
  8
Board_Geoms
 62
0
 10
328.295
 20
-73.81875
 30
0.0
 40
0.875
  0
CIRCLE
  8
Board_Geoms
 62
0
 10
297.815
 20
-68.73875
 30
0.0
 40
1.5
  0
CIRCLE
  8
Board_Geoms
 62
0
 10
257.175
 20
-73.81875
 30
0.0
 40
1.994
  0
CIRCLE
  8
Board_Geoms
 62
0
 10
262.255
 20
-73.81875
 30
0.0
 40
0.875
  0
CIRCLE
  8
Board_Geoms
 62
0
 10
269.39875
 20
-92.86875
 30
0.0
 40
0.875
  0
CIRCLE
  8
Board_Geoms
 62
0
 10
260.50875
 20
-90.32875
 30
0.0
 40
1.5
  0
CIRCLE
  8
Board_Geoms
 62
0
 10
259.23875
 20
-92.86875
 30
0.0
 40
0.875
  0
CIRCLE
  8
Board_Geoms
 62
0
 10
259.715
 20
-68.73875
 30
0.0
 40
1.5
  0
CIRCLE
  8
Board_Geoms
 62
0
 10
272.415
 20
-71.27875
 30
0.0
 40
1.5
  0
CIRCLE
  8
Board_Geoms
 62
0
 10
281.305
 20
-73.81875
 30
0.0
 40
0.875
  0
CIRCLE
  8
Board_Geoms
 62
0
 10
376.2375
 20
-97.63125
 30
0.0
 40
1.994
  0
CIRCLE
  8
Board_Geoms
 62
0
 10
371.1575
 20
-97.63125
 30
0.0
 40
0.875
  0
CIRCLE
  8
Board_Geoms
 62
0
 10
372.4275
 20
-95.09125
 30
0.0
 40
1.5
  0
CIRCLE
  8
Board_Geoms
 62
0
 10
362.2675
 20
-97.63125
 30
0.0
 40
0.875
  0
CIRCLE
  8
Board_Geoms
 62
0
 10
357.1875
 20
-97.63125
 30
0.0
 40
1.994
  0
CIRCLE
  8
Board_Geoms
 62
0
 10
333.0575
 20
-97.63125
 30
0.0
 40
0.875
  0
CIRCLE
  8
Board_Geoms
 62
0
 10
259.75
 20
-99.96
 30
0.0
 40
0.5
  0
CIRCLE
  8
Board_Geoms
 62
0
 10
226.3775
 20
-30.63875
 30
0.0
 40
1.5
  0
CIRCLE
  8
Board_Geoms
 62
0
 10
228.9175
 20
-35.71875
 30
0.0
 40
0.875
  0
CIRCLE
  8
Board_Geoms
 62
0
 10
237.8075
 20
-35.71875
 30
0.0
 40
0.875
  0
CIRCLE
  8
Board_Geoms
 62
0
 10
239.0775
 20
-33.17875
 30
0.0
 40
1.5
  0
CIRCLE
  8
Board_Geoms
 62
0
 10
256.8575
 20
-35.71875
 30
0.0
 40
0.875
  0
CIRCLE
  8
Board_Geoms
 62
0
 10
247.9675
 20
-35.71875
 30
0.0
 40
0.875
  0
CIRCLE
  8
Board_Geoms
 62
0
 10
258.1275
 20
-33.17875
 30
0.0
 40
1.5
  0
CIRCLE
  8
Board_Geoms
 62
0
 10
242.8875
 20
-35.71875
 30
0.0
 40
1.994
  0
CIRCLE
  8
Board_Geoms
 62
0
 10
245.4275
 20
-30.63875
 30
0.0
 40
1.5
  0
CIRCLE
  8
Board_Geoms
 62
0
 10
261.9375
 20
-35.71875
 30
0.0
 40
1.994
  0
CIRCLE
  8
Board_Geoms
 62
0
 10
264.4775
 20
-30.63875
 30
0.0
 40
1.5
  0
CIRCLE
  8
Board_Geoms
 62
0
 10
305.1175
 20
-35.71875
 30
0.0
 40
0.875
  0
CIRCLE
  8
Board_Geoms
 62
0
 10
300.0375
 20
-35.71875
 30
0.0
 40
1.994
  0
CIRCLE
  8
Board_Geoms
 62
0
 10
302.5775
 20
-30.63875
 30
0.0
 40
1.5
  0
CIRCLE
  8
Board_Geoms
 62
0
 10
296.2275
 20
-33.17875
 30
0.0
 40
1.5
  0
CIRCLE
  8
Board_Geoms
 62
0
 10
294.9575
 20
-35.71875
 30
0.0
 40
0.875
  0
CIRCLE
  8
Board_Geoms
 62
0
 10
277.1775
 20
-33.17875
 30
0.0
 40
1.5
  0
CIRCLE
  8
Board_Geoms
 62
0
 10
275.9075
 20
-35.71875
 30
0.0
 40
0.875
  0
CIRCLE
  8
Board_Geoms
 62
0
 10
280.9875
 20
-35.71875
 30
0.0
 40
1.994
  0
CIRCLE
  8
Board_Geoms
 62
0
 10
283.5275
 20
-30.63875
 30
0.0
 40
1.5
  0
CIRCLE
  8
Board_Geoms
 62
0
 10
286.0675
 20
-35.71875
 30
0.0
 40
0.875
  0
CIRCLE
  8
Board_Geoms
 62
0
 10
267.0175
 20
-35.71875
 30
0.0
 40
0.875
  0
CIRCLE
  8
Board_Geoms
 62
0
 10
340.6775
 20
-30.63875
 30
0.0
 40
1.5
  0
CIRCLE
  8
Board_Geoms
 62
0
 10
334.3275
 20
-33.17875
 30
0.0
 40
1.5
  0
CIRCLE
  8
Board_Geoms
 62
0
 10
333.0575
 20
-35.71875
 30
0.0
 40
0.875
  0
CIRCLE
  8
Board_Geoms
 62
0
 10
338.1375
 20
-35.71875
 30
0.0
 40
1.994
  0
CIRCLE
  8
Board_Geoms
 62
0
 10
314.0075
 20
-35.71875
 30
0.0
 40
0.875
  0
CIRCLE
  8
Board_Geoms
 62
0
 10
315.2775
 20
-33.17875
 30
0.0
 40
1.5
  0
CIRCLE
  8
Board_Geoms
 62
0
 10
319.0875
 20
-35.71875
 30
0.0
 40
1.994
  0
CIRCLE
  8
Board_Geoms
 62
0
 10
321.6275
 20
-30.63875
 30
0.0
 40
1.5
  0
CIRCLE
  8
Board_Geoms
 62
0
 10
324.1675
 20
-35.71875
 30
0.0
 40
0.875
  0
CIRCLE
  8
Board_Geoms
 62
0
 10
352.1075
 20
-35.71875
 30
0.0
 40
0.875
  0
CIRCLE
  8
Board_Geoms
 62
0
 10
353.3775
 20
-33.17875
 30
0.0
 40
1.5
  0
CIRCLE
  8
Board_Geoms
 62
0
 10
343.2175
 20
-35.71875
 30
0.0
 40
0.875
  0
ARC
  8
Board_Geoms
 62
0
 10
375.40875
 20
-35.0325
 30
0.0
 40
0.75
 50
-0.0
 51
-180.0
  0
LINE
  8
Board_Geoms
 62
0
 10
374.65875
 20
-36.3325
 30
0.0
 11
374.65875
 21
-35.0325
 31
0.0
  0
LINE
  8
Board_Geoms
 62
0
 10
376.15875
 20
-35.0325
 30
0.0
 11
376.15875
 21
-36.3325
 31
0.0
  0
ARC
  8
Board_Geoms
 62
0
 10
375.40875
 20
-36.3325
 30
0.0
 40
0.75
 50
-180.0
 51
-0.0
  0
CIRCLE
  8
Board_Geoms
 62
0
 10
359.7275
 20
-30.63875
 30
0.0
 40
1.5
  0
CIRCLE
  8
Board_Geoms
 62
0
 10
357.1875
 20
-35.71875
 30
0.0
 40
1.994
  0
CIRCLE
  8
Board_Geoms
 62
0
 10
362.2675
 20
-35.71875
 30
0.0
 40
0.875
  0
CIRCLE
  8
Board_Geoms
 62
0
 10
378.50875
 20
-28.6825
 30
0.0
 40
0.5
  0
CIRCLE
  8
Board_Geoms
 62
0
 10
378.50875
 20
-43.1825
 30
0.0
 40
0.5
  0
CIRCLE
  8
Board_Geoms
 62
0
 10
195.42125
 20
-87.78875
 30
0.0
 40
1.5
  0
CIRCLE
  8
Board_Geoms
 62
0
 10
223.227
 20
-90.842
 30
0.0
 40
0.3
  0
CIRCLE
  8
Board_Geoms
 62
0
 10
221.957
 20
-90.842
 30
0.0
 40
0.3
  0
CIRCLE
  8
Board_Geoms
 62
0
 10
219.417
 20
-90.842
 30
0.0
 40
0.3
  0
CIRCLE
  8
Board_Geoms
 62
0
 10
220.687
 20
-90.842
 30
0.0
 40
0.3
  0
CIRCLE
  8
Board_Geoms
 62
0
 10
214.31885
 20
-84.61375
 30
0.0
 40
1.994
  0
CIRCLE
  8
Board_Geoms
 62
0
 10
224.497
 20
-90.842
 30
0.0
 40
0.3
  0
CIRCLE
  8
Board_Geoms
 62
0
 10
194.945
 20
-73.81875
 30
0.0
 40
0.875
  0
CIRCLE
  8
Board_Geoms
 62
0
 10
200.025
 20
-73.81875
 30
0.0
 40
1.994
  0
CIRCLE
  8
Board_Geoms
 62
0
 10
205.105
 20
-73.81875
 30
0.0
 40
0.875
  0
CIRCLE
  8
Board_Geoms
 62
0
 10
224.155
 20
-73.81875
 30
0.0
 40
0.875
  0
CIRCLE
  8
Board_Geoms
 62
0
 10
213.995
 20
-73.81875
 30
0.0
 40
0.875
  0
CIRCLE
  8
Board_Geoms
 62
0
 10
219.075
 20
-73.81875
 30
0.0
 40
1.994
  0
CIRCLE
  8
Board_Geoms
 62
0
 10
214.31885
 20
-99.85375
 30
0.0
 40
1.524
  0
CIRCLE
  8
Board_Geoms
 62
0
 10
197.96125
 20
-92.86875
 30
0.0
 40
0.875
  0
CIRCLE
  8
Board_Geoms
 62
0
 10
221.615
 20
-68.73875
 30
0.0
 40
1.5
  0
CIRCLE
  8
Board_Geoms
 62
0
 10
215.265
 20
-71.27875
 30
0.0
 40
1.5
  0
CIRCLE
  8
Board_Geoms
 62
0
 10
202.565
 20
-68.73875
 30
0.0
 40
1.5
  0
CIRCLE
  8
Board_Geoms
 62
0
 10
214.63
 20
-54.76875
 30
0.0
 40
0.875
  0
CIRCLE
  8
Board_Geoms
 62
0
 10
223.52
 20
-54.76875
 30
0.0
 40
0.875
  0
CIRCLE
  8
Board_Geoms
 62
0
 10
204.47
 20
-54.76875
 30
0.0
 40
0.875
  0
CIRCLE
  8
Board_Geoms
 62
0
 10
195.58
 20
-54.76875
 30
0.0
 40
0.875
  0
CIRCLE
  8
Board_Geoms
 62
0
 10
225.767
 20
-90.842
 30
0.0
 40
0.3
  0
CIRCLE
  8
Board_Geoms
 62
0
 10
209.8675
 20
-35.71875
 30
0.0
 40
0.875
  0
CIRCLE
  8
Board_Geoms
 62
0
 10
212.09
 20
-49.68875
 30
0.0
 40
1.5
  0
CIRCLE
  8
Board_Geoms
 62
0
 10
220.0275
 20
-33.17875
 30
0.0
 40
1.5
  0
CIRCLE
  8
Board_Geoms
 62
0
 10
218.7575
 20
-35.71875
 30
0.0
 40
0.875
  0
CIRCLE
  8
Board_Geoms
 62
0
 10
209.55
 20
-54.76875
 30
0.0
 40
1.994
  0
CIRCLE
  8
Board_Geoms
 62
0
 10
223.8375
 20
-35.71875
 30
0.0
 40
1.994
  0
CIRCLE
  8
Board_Geoms
 62
0
 10
224.79
 20
-52.22875
 30
0.0
 40
1.5
  0
CIRCLE
  8
Board_Geoms
 62
0
 10
204.7875
 20
-35.71875
 30
0.0
 40
1.994
  0
CIRCLE
  8
Board_Geoms
 62
0
 10
205.74
 20
-52.22875
 30
0.0
 40
1.5
  0
CIRCLE
  8
Board_Geoms
 62
0
 10
199.7075
 20
-35.71875
 30
0.0
 40
0.875
  0
CIRCLE
  8
Board_Geoms
 62
0
 10
200.9775
 20
-33.17875
 30
0.0
 40
1.5
  0
CIRCLE
  8
Board_Geoms
 62
0
 10
207.3275
 20
-30.63875
 30
0.0
 40
1.5
  0
CIRCLE
  8
Board_Geoms
 62
0
 10
381.3175
 20
-97.63125
 30
0.0
 40
0.875
  0
CIRCLE
  8
Board_Geoms
 62
0
 10
381.00875
 20
-43.1825
 30
0.0
 40
0.5
  0
CIRCLE
  8
Board_Geoms
 62
0
 10
382.3
 20
-48.5
 30
0.0
 40
0.5
  0
ARC
  8
Board_Geoms
 62
0
 10
180.5325
 20
-20.08125
 30
0.0
 40
0.30000000000001137
 50
-0.0
 51
-180.0
  0
LINE
  8
Board_Geoms
 62
0
 10
180.2325
 20
-20.68125
 30
0.0
 11
180.2325
 21
-20.08125
 31
0.0
  0
LINE
  8
Board_Geoms
 62
0
 10
180.8325
 20
-20.08125
 30
0.0
 11
180.8325
 21
-20.68125
 31
0.0
  0
ARC
  8
Board_Geoms
 62
0
 10
180.5325
 20
-20.68125
 30
0.0
 40
0.30000000000001137
 50
-180.0
 51
-0.0
  0
ARC
  8
Board_Geoms
 62
0
 10
180.5325
 20
-24.01125
 30
0.0
 40
0.30000000000001137
 50
-0.0
 51
-180.0
  0
LINE
  8
Board_Geoms
 62
0
 10
180.2325
 20
-25.11125
 30
0.0
 11
180.2325
 21
-24.01125
 31
0.0
  0
LINE
  8
Board_Geoms
 62
0
 10
180.8325
 20
-24.01125
 30
0.0
 11
180.8325
 21
-25.11125
 31
0.0
  0
ARC
  8
Board_Geoms
 62
0
 10
180.5325
 20
-25.11125
 30
0.0
 40
0.30000000000001137
 50
-180.0
 51
-0.0
  0
CIRCLE
  8
Board_Geoms
 62
0
 10
180.6575
 20
-35.71875
 30
0.0
 40
0.875
  0
CIRCLE
  8
Board_Geoms
 62
0
 10
181.9275
 20
-33.17875
 30
0.0
 40
1.5
  0
CIRCLE
  8
Board_Geoms
 62
0
 10
190.8175
 20
-35.71875
 30
0.0
 40
0.875
  0
CIRCLE
  8
Board_Geoms
 62
0
 10
185.7375
 20
-35.71875
 30
0.0
 40
1.994
  0
CIRCLE
  8
Board_Geoms
 62
0
 10
188.2775
 20
-30.63875
 30
0.0
 40
1.5
  0
CIRCLE
  8
Board_Geoms
 62
0
 10
190.5
 20
-54.76875
 30
0.0
 40
1.994
  0
CIRCLE
  8
Board_Geoms
 62
0
 10
193.04
 20
-49.68875
 30
0.0
 40
1.5
  0
CIRCLE
  8
Board_Geoms
 62
0
 10
185.42
 20
-54.76875
 30
0.0
 40
0.875
  0
CIRCLE
  8
Board_Geoms
 62
0
 10
186.69
 20
-52.22875
 30
0.0
 40
1.5
  0
CIRCLE
  8
Board_Geoms
 62
0
 10
179.1025
 20
-24.03125
 30
0.0
 40
0.325
  0
CIRCLE
  8
Board_Geoms
 62
0
 10
180.975
 20
-73.81875
 30
0.0
 40
1.994
  0
CIRCLE
  8
Board_Geoms
 62
0
 10
186.055
 20
-73.81875
 30
0.0
 40
0.875
  0
CIRCLE
  8
Board_Geoms
 62
0
 10
183.515
 20
-68.73875
 30
0.0
 40
1.5
  0
CIRCLE
  8
Board_Geoms
 62
0
 10
187.80125
 20
-92.86875
 30
0.0
 40
0.875
  0
CIRCLE
  8
Board_Geoms
 62
0
 10
189.07125
 20
-90.32875
 30
0.0
 40
1.5
  0
CIRCLE
  8
Board_Geoms
 62
0
 10
192.88125
 20
-92.86875
 30
0.0
 40
1.994
  0
CIRCLE
  8
Board_Geoms
 62
0
 10
196.215
 20
-71.27875
 30
0.0
 40
1.5
  0
CIRCLE
  8
Board_Geoms
 62
0
 10
173.3225
 20
-24.03125
 30
0.0
 40
0.325
  0
ARC
  8
Board_Geoms
 62
0
 10
171.8925
 20
-24.011249999999993
 30
0.0
 40
0.29999999999999477
 50
-0.0
 51
-180.0
  0
LINE
  8
Board_Geoms
 62
0
 10
171.5925
 20
-25.11125
 30
0.0
 11
171.5925
 21
-24.01125
 31
0.0
  0
LINE
  8
Board_Geoms
 62
0
 10
172.1925
 20
-24.01125
 30
0.0
 11
172.1925
 21
-25.11125
 31
0.0
  0
ARC
  8
Board_Geoms
 62
0
 10
171.8925
 20
-25.111250000000005
 30
0.0
 40
0.29999999999999477
 50
180.0
 51
0.0
  0
CIRCLE
  8
Board_Geoms
 62
0
 10
171.45
 20
-54.76875
 30
0.0
 40
1.994
  0
CIRCLE
  8
Board_Geoms
 62
0
 10
174.14875
 20
-92.86875
 30
0.0
 40
0.875
  0
CIRCLE
  8
Board_Geoms
 62
0
 10
175.895
 20
-73.81875
 30
0.0
 40
0.875
  0
ARC
  8
Board_Geoms
 62
0
 10
171.8925
 20
-20.081249999999994
 30
0.0
 40
0.29999999999999477
 50
-0.0
 51
-180.0
  0
LINE
  8
Board_Geoms
 62
0
 10
171.5925
 20
-20.68125
 30
0.0
 11
171.5925
 21
-20.08125
 31
0.0
  0
LINE
  8
Board_Geoms
 62
0
 10
172.1925
 20
-20.08125
 30
0.0
 11
172.1925
 21
-20.68125
 31
0.0
  0
ARC
  8
Board_Geoms
 62
0
 10
171.8925
 20
-20.681250000000006
 30
0.0
 40
0.29999999999999477
 50
180.0
 51
0.0
  0
CIRCLE
  8
Board_Geoms
 62
0
 10
177.165
 20
-71.27875
 30
0.0
 40
1.5
  0
CIRCLE
  8
Board_Geoms
 62
0
 10
176.53
 20
-54.76875
 30
0.0
 40
0.875
  0
CIRCLE
  8
Board_Geoms
 62
0
 10
165.25875
 20
-90.32875
 30
0.0
 40
1.5
  0
CIRCLE
  8
Board_Geoms
 62
0
 10
169.06875
 20
-92.86875
 30
0.0
 40
1.994
  0
CIRCLE
  8
Board_Geoms
 62
0
 10
171.60875
 20
-87.78875
 30
0.0
 40
1.5
  0
CIRCLE
  8
Board_Geoms
 62
0
 10
159.86125
 20
-73.81875
 30
0.0
 40
0.875
  0
CIRCLE
  8
Board_Geoms
 62
0
 10
162.8775
 20
-33.17875
 30
0.0
 40
1.5
  0
CIRCLE
  8
Board_Geoms
 62
0
 10
161.6075
 20
-35.71875
 30
0.0
 40
0.875
  0
CIRCLE
  8
Board_Geoms
 62
0
 10
161.925
 20
-57.15
 30
0.0
 40
1.1
  0
CIRCLE
  8
Board_Geoms
 62
0
 10
166.6875
 20
-35.71875
 30
0.0
 40
1.994
  0
CIRCLE
  8
Board_Geoms
 62
0
 10
167.64
 20
-52.22875
 30
0.0
 40
1.5
  0
CIRCLE
  8
Board_Geoms
 62
0
 10
166.37
 20
-54.76875
 30
0.0
 40
0.875
  0
CIRCLE
  8
Board_Geoms
 62
0
 10
169.2275
 20
-30.63875
 30
0.0
 40
1.5
  0
CIRCLE
  8
Board_Geoms
 62
0
 10
171.7675
 20
-35.71875
 30
0.0
 40
0.875
  0
CIRCLE
  8
Board_Geoms
 62
0
 10
173.99
 20
-49.68875
 30
0.0
 40
1.5
  0
CIRCLE
  8
Board_Geoms
 62
0
 10
163.98875
 20
-92.86875
 30
0.0
 40
0.875
  0
CIRCLE
  8
Board_Geoms
 62
0
 10
383.50875
 20
-43.1825
 30
0.0
 40
0.5
  0
CIRCLE
  8
Board_Geoms
 62
0
 10
383.50875
 20
-28.6825
 30
0.0
 40
0.5
  0
CIRCLE
  8
Board_Geoms
 62
0
 10
245.0
 20
-103.75
 30
0.0
 40
0.5
  0
LINE
  8
Board_Geoms
 62
0
 10
254.0
 20
-104.6
 30
0.0
 11
250.6
 21
-104.6
 31
0.0
  0
ARC
  8
Board_Geoms
 62
0
 10
254.0
 20
-103.79999999999998
 30
0.0
 40
0.8000000000000105
 50
-90.0
 51
-0.0
  0
ARC
  8
Board_Geoms
 62
0
 10
250.60000000000002
 20
-103.8
 30
0.0
 40
0.8000000000000057
 50
-180.0
 51
-90.00000000000203
  0
LINE
  8
Board_Geoms
 62
0
 10
254.8
 20
-103.4
 30
0.0
 11
254.8
 21
-103.8
 31
0.0
  0
LINE
  8
Board_Geoms
 62
0
 10
249.8
 20
-103.8
 30
0.0
 11
249.8
 21
-103.4
 31
0.0
  0
ARC
  8
Board_Geoms
 62
0
 10
254.0
 20
-103.39999999999999
 30
0.0
 40
0.8000000000000024
 50
-0.0
 51
90.0
  0
ARC
  8
Board_Geoms
 62
0
 10
250.60000000000002
 20
-103.39999999999999
 30
0.0
 40
0.8000000000000057
 50
90.00000000000203
 51
-180.0
  0
LINE
  8
Board_Geoms
 62
0
 10
250.6
 20
-102.6
 30
0.0
 11
254.0
 21
-102.6
 31
0.0
  0
CIRCLE
  8
Board_Geoms
 62
0
 10
259.75
 20
-102.5
 30
0.0
 40
0.5
  0
CIRCLE
  8
Board_Geoms
 62
0
 10
235.24
 20
-103.8
 30
0.0
 40
0.5
  0
CIRCLE
  8
Board_Geoms
 62
0
 10
227.291
 20
-102.272
 30
0.0
 40
0.3
  0
CIRCLE
  8
Board_Geoms
 62
0
 10
232.7
 20
-103.8
 30
0.0
 40
0.5
  0
CIRCLE
  8
Board_Geoms
 62
0
 10
143.8275
 20
-33.17875
 30
0.0
 40
1.5
  0
CIRCLE
  8
Board_Geoms
 62
0
 10
147.6375
 20
-35.71875
 30
0.0
 40
1.994
  0
CIRCLE
  8
Board_Geoms
 62
0
 10
150.1775
 20
-30.63875
 30
0.0
 40
1.5
  0
CIRCLE
  8
Board_Geoms
 62
0
 10
142.5575
 20
-35.71875
 30
0.0
 40
0.875
  0
CIRCLE
  8
Board_Geoms
 62
0
 10
152.7175
 20
-35.71875
 30
0.0
 40
0.875
  0
CIRCLE
  8
Board_Geoms
 62
0
 10
152.55875
 20
-49.68875
 30
0.0
 40
1.5
  0
CIRCLE
  8
Board_Geoms
 62
0
 10
146.20875
 20
-52.22875
 30
0.0
 40
1.5
  0
CIRCLE
  8
Board_Geoms
 62
0
 10
154.78125
 20
-73.81875
 30
0.0
 40
1.994
  0
CIRCLE
  8
Board_Geoms
 62
0
 10
157.32125
 20
-68.73875
 30
0.0
 40
1.5
  0
CIRCLE
  8
Board_Geoms
 62
0
 10
150.97125
 20
-71.27875
 30
0.0
 40
1.5
  0
CIRCLE
  8
Board_Geoms
 62
0
 10
149.70125
 20
-73.81875
 30
0.0
 40
0.875
  0
CIRCLE
  8
Board_Geoms
 62
0
 10
150.01875
 20
-54.76875
 30
0.0
 40
1.994
  0
CIRCLE
  8
Board_Geoms
 62
0
 10
155.09875
 20
-54.76875
 30
0.0
 40
0.875
  0
CIRCLE
  8
Board_Geoms
 62
0
 10
144.93875
 20
-54.76875
 30
0.0
 40
0.875
  0
CIRCLE
  8
Board_Geoms
 62
0
 10
384.84
 20
-48.5
 30
0.0
 40
0.5
  0
ARC
  8
Board_Geoms
 62
0
 10
386.60875
 20
-35.0325
 30
0.0
 40
0.75
 50
-0.0
 51
-180.0
  0
LINE
  8
Board_Geoms
 62
0
 10
385.85875
 20
-36.3325
 30
0.0
 11
385.85875
 21
-35.0325
 31
0.0
  0
LINE
  8
Board_Geoms
 62
0
 10
387.35875
 20
-35.0325
 30
0.0
 11
387.35875
 21
-36.3325
 31
0.0
  0
ARC
  8
Board_Geoms
 62
0
 10
386.60875
 20
-36.3325
 30
0.0
 40
0.75
 50
-180.0
 51
-0.0
  0
ENDBLK
  0
ENDSEC
  0
SECTION
  2
ENTITIES
  0
INSERT
  2
BOARD_OUTLINE
  8
Board_Geoms
 62
0
 10
0.0
 20
0.0
 30
0.0
  0
ENDSEC
  0
EOF
